<svg width="60" height="28" viewBox="0 0 60 28" fill="none" xmlns="http://www.w3.org/2000/svg">
<g id="car">
<path id="Vector" d="M25 10.4998H28.9998V12.8336H25V10.4998Z" fill="#332208"/>
<path id="Vector_2" d="M59.1418 7.01161L52.349 5.87988C51.1104 4.99216 49.825 4.19748 48.4997 3.50012C44.1231 1.18729 39.373 -0.00614761 34.5679 2.38131e-05H33.3878C27.7173 0.00477093 22.1374 1.66486 17.157 4.82885L13.7288 7.01066C9.71598 7.06335 5.78043 8.30853 2.29411 10.6271C0.877278 11.5751 0.00244141 13.3339 0 15.2389V22.1665C0 22.8112 0.447591 23.3334 1.00016 23.3334H4.35791C5.45003 26.9683 8.86108 28.8823 11.9767 27.6082C13.6918 26.907 15.0399 25.3338 15.6409 23.3334H42.358C43.4501 26.9683 46.8612 28.8823 49.9768 27.6082C51.6915 26.907 53.0399 25.3338 53.6409 23.3334H53.9998C54.1272 23.3334 54.2533 23.3053 54.3717 23.2503L57.6107 21.734C59.0576 21.0656 60.0053 19.4316 60 17.6168V8.16659C60 7.58649 59.6342 7.09421 59.1418 7.01161ZM13.9189 21.9334C13.4766 24.4584 11.3635 26.0872 9.19922 25.5712C7.0345 25.0552 5.63843 22.5899 6.08073 20.0644C6.52344 17.5394 8.63647 15.9107 10.8008 16.4267C12.6632 16.8705 14.0002 18.7822 13.9998 21.0001C13.9998 21.3134 13.9726 21.6263 13.9189 21.9334ZM31.9999 21.0001H15.9998C15.9998 17.134 13.3138 13.9999 10 13.9999C6.6862 13.9999 3.99984 17.134 3.99984 21.0001H1.99992V15.2389C2.00114 14.1704 2.49186 13.1834 3.28695 12.6527C6.55029 10.4789 10.2425 9.33488 13.9998 9.33345H31.9999V21.0001ZM31.9999 7.00021H17.922L18.1148 6.87726C22.3901 4.16662 27.1391 2.62996 31.9999 2.38453V7.00021ZM33.9998 2.33326H34.5658C38.5958 2.32804 42.5891 3.22051 46.3322 4.9632L44.5862 7.00021H33.9998V2.33326ZM51.9189 21.9334C51.4766 24.4584 49.3636 26.0872 47.1989 25.5712C45.0346 25.0552 43.6385 22.5899 44.0808 20.0644C44.5231 17.5394 46.6365 15.9107 48.8008 16.4267C50.6632 16.8705 52.0003 18.7822 51.9999 21.0001C51.9999 21.3134 51.9726 21.6263 51.9189 21.9334ZM58.0001 10.4998H55V12.8335H58.0001V17.6168C58.0025 18.4765 57.5533 19.2503 56.8681 19.566L53.9998 20.9099C53.9998 20.8026 53.988 20.6963 53.9819 20.589C53.9758 20.4817 53.9738 20.3559 53.964 20.2391C53.9538 20.1224 53.9339 20.0056 53.918 19.8893C53.9018 19.7725 53.89 19.6557 53.87 19.5499C53.8501 19.4435 53.8208 19.3258 53.7947 19.2147C53.7687 19.1041 53.7488 18.9921 53.7187 18.8833C53.6889 18.7751 53.6527 18.6712 53.619 18.5648C53.5848 18.459 53.5539 18.3493 53.5189 18.2439C53.4839 18.139 53.4367 18.0436 53.3948 17.9444C53.3528 17.8451 53.3118 17.7364 53.265 17.6363C53.2178 17.5361 53.1649 17.4506 53.1197 17.3576C53.0749 17.2641 53.02 17.1577 52.963 17.0623C52.9057 16.9664 52.8528 16.891 52.7978 16.8046C52.7429 16.7182 52.6806 16.6166 52.6168 16.5268C52.5529 16.4371 52.4931 16.3669 52.4308 16.2933C52.369 16.2202 52.2998 16.121 52.231 16.0393C52.1618 15.9577 52.0939 15.8931 52.0251 15.8209C51.956 15.7488 51.8819 15.6633 51.8058 15.5874C51.7301 15.5119 51.6528 15.4535 51.5771 15.3871C51.501 15.3206 51.425 15.2494 51.3452 15.1872C51.265 15.1255 51.1751 15.0709 51.0893 15.0054C51.003 14.9399 50.933 14.8886 50.852 14.8388C50.7711 14.7884 50.6702 14.7357 50.5782 14.6845C50.4862 14.6332 50.4142 14.5876 50.3292 14.5459C50.2441 14.5036 50.129 14.4595 50.0293 14.4177C49.9292 14.3754 49.8641 14.3427 49.779 14.3113C49.6651 14.2705 49.5483 14.2411 49.4319 14.2074C49.3559 14.1865 49.283 14.1585 49.2061 14.14C49.0832 14.1105 48.9571 14.0944 48.8322 14.073C48.7581 14.0616 48.6873 14.0427 48.6133 14.0346C48.4131 14.0113 48.2133 13.9985 48.0033 13.9985C44.6907 14.0023 42.0064 17.134 42.0032 20.9987H34.0002V9.33298H45C45.2653 9.33298 45.5196 9.21002 45.7068 8.99118L48.3 5.9658C49.3884 6.57012 50.4468 7.24564 51.4701 7.98905C51.5881 8.07497 51.72 8.13146 51.8579 8.15473L58.0001 9.17774V10.4998Z" fill="#332208"/>
</g>
</svg>
