<svg width="50" height="39" viewBox="0 0 50 39" fill="none" xmlns="http://www.w3.org/2000/svg">
<g id="map">
<path id="Vector" d="M29.4816 7.72219C29.4837 6.77163 29.2427 5.84173 28.7891 5.05021C28.3355 4.2587 27.6898 3.64115 26.9336 3.27575C26.1774 2.91035 25.3449 2.81353 24.5412 2.99754C23.7376 3.18155 22.9992 3.63812 22.4193 4.30946C21.8394 4.98079 21.4441 5.8367 21.2836 6.76883C21.1231 7.70097 21.2045 8.66742 21.5175 9.54583C21.8306 10.4243 22.3611 11.1751 23.0421 11.7034C23.723 12.2317 24.5237 12.5137 25.3428 12.5136C26.4388 12.5137 27.49 12.0093 28.2659 11.1111C29.0418 10.2128 29.479 8.99407 29.4816 7.72219ZM25.3428 11.0984C24.7679 11.0961 24.2064 10.8961 23.7293 10.5237C23.2523 10.1513 22.881 9.62325 22.6624 9.00616C22.4437 8.38907 22.3876 7.71063 22.5009 7.05651C22.6143 6.4024 22.8922 5.80194 23.2994 5.33096C23.7067 4.85998 24.225 4.5396 24.7891 4.41027C25.3531 4.28095 25.9375 4.34847 26.4685 4.60433C26.9995 4.86018 27.4532 5.29288 27.7725 5.8478C28.0917 6.40272 28.2621 7.05498 28.2621 7.72219C28.2599 8.61884 27.9513 9.47786 27.404 10.1108C26.8567 10.7437 26.1154 11.0989 25.3428 11.0984Z" fill="black"/>
<path id="Vector_2" d="M11.8864 19.5899C11.3214 19.5914 10.7695 19.7873 10.3004 20.1526C9.83132 20.518 9.46605 21.0366 9.25078 21.6427C9.0355 22.2489 8.97986 22.9155 9.0909 23.5584C9.20194 24.2013 9.47467 24.7915 9.87463 25.2545C10.2746 25.7176 10.7839 26.0327 11.3381 26.16C11.8923 26.2874 12.4666 26.2212 12.9884 25.9699C13.5102 25.7187 13.9562 25.2935 14.2699 24.7483C14.5836 24.203 14.751 23.5621 14.751 22.9064C14.7493 22.0261 14.4467 21.1825 13.9096 20.5607C13.3726 19.939 12.645 19.5898 11.8864 19.5899ZM11.8864 24.8078C11.5626 24.8063 11.2465 24.6935 10.978 24.4836C10.7094 24.2737 10.5005 23.9762 10.3775 23.6287C10.2545 23.2811 10.223 22.8991 10.287 22.5307C10.3509 22.1624 10.5075 21.8243 10.7369 21.5592C10.9663 21.2941 11.2583 21.1138 11.5759 21.041C11.8935 20.9683 12.2226 21.0064 12.5216 21.1505C12.8206 21.2947 13.0761 21.5384 13.2558 21.8509C13.4356 22.1634 13.5315 22.5307 13.5315 22.9064C13.5302 23.4116 13.3563 23.8956 13.0479 24.2522C12.7394 24.6087 12.3217 24.8087 11.8864 24.8083V24.8078Z" fill="black"/>
<path id="Vector_3" d="M29.9837 25.7559C29.4996 25.7572 29.0266 25.9249 28.6245 26.238C28.2225 26.5511 27.9094 26.9955 27.7249 27.5149C27.5404 28.0344 27.4927 28.6057 27.5878 29.1566C27.6829 29.7076 27.9166 30.2134 28.2593 30.6103C28.6021 31.0071 29.0385 31.2772 29.5134 31.3864C29.9884 31.4955 30.4805 31.4389 30.9278 31.2235C31.375 31.0082 31.7572 30.6439 32.026 30.1767C32.2949 29.7094 32.4384 29.1601 32.4384 28.5982C32.437 27.8438 32.1777 27.1209 31.7175 26.588C31.2573 26.0552 30.6338 25.7559 29.9837 25.7559ZM29.9837 30.0253C29.7408 30.024 29.5036 29.9392 29.3021 29.7817C29.1006 29.6241 28.9438 29.4008 28.8516 29.1399C28.7594 28.8791 28.7358 28.5923 28.7839 28.3159C28.8319 28.0395 28.9495 27.7859 29.1217 27.5869C29.2938 27.388 29.513 27.2527 29.7513 27.1981C29.9897 27.1436 30.2367 27.1722 30.4611 27.2804C30.6854 27.3886 30.8772 27.5715 31.012 27.8061C31.1469 28.0406 31.2189 28.3162 31.2189 28.5982C31.2178 28.9774 31.0871 29.3405 30.8555 29.6081C30.624 29.8756 30.3105 30.0256 29.9837 30.0251V30.0253Z" fill="black"/>
<path id="Vector_4" d="M43.0233 16.0771C43.5075 16.0758 43.9804 15.9081 44.3825 15.595C44.7845 15.2819 45.0976 14.8376 45.2821 14.3181C45.4667 13.7986 45.5144 13.2273 45.4193 12.6764C45.3241 12.1255 45.0904 11.6196 44.7477 11.2228C44.405 10.8259 43.9685 10.5558 43.4936 10.4467C43.0186 10.3375 42.5265 10.3942 42.0793 10.6095C41.6321 10.8248 41.2499 11.1891 40.981 11.6564C40.7121 12.1237 40.5686 12.6729 40.5686 13.2348C40.5701 13.9892 40.8293 14.7122 41.2895 15.245C41.7497 15.7779 42.3732 16.0771 43.0233 16.0771ZM43.0233 11.8078C43.2663 11.809 43.5035 11.8938 43.705 12.0514C43.9064 12.2089 44.0632 12.4322 44.1554 12.6931C44.2477 12.954 44.2712 13.2407 44.2232 13.5171C44.1751 13.7935 44.0576 14.0472 43.8854 14.2461C43.7132 14.4451 43.4941 14.5803 43.2557 14.6349C43.0173 14.6894 42.7703 14.6608 42.546 14.5526C42.3216 14.4444 42.1299 14.2615 41.995 14.027C41.8601 13.7924 41.7881 13.5168 41.7881 13.2348C41.7892 12.8556 41.9199 12.4924 42.1514 12.2249C42.383 11.9574 42.6965 11.8074 43.0233 11.8078Z" fill="black"/>
<path id="Vector_5" d="M44.801 18.8171L46.4092 16.3295C47.0286 15.3909 47.3367 14.2252 47.2773 13.045C47.1325 10.4697 45.3149 8.45211 43.1393 8.45211C40.9636 8.45211 39.1464 10.4697 39.0012 13.0444C38.9698 13.629 39.0325 14.2153 39.1861 14.7732L29.1288 14.9873L30.6809 12.5852C31.6716 11.0859 32.1647 9.22321 32.0703 7.33701C31.9636 5.40757 31.2568 3.58873 30.0814 2.21851C29.4758 1.5152 28.7568 0.95726 27.9653 0.576595C27.1738 0.195931 26.3255 0 25.4688 0C24.612 0 23.7637 0.195931 22.9722 0.576595C22.1807 0.95726 21.4617 1.5152 20.8561 2.21851C19.6809 3.5884 18.9742 5.4068 18.8673 7.33583C18.7636 9.1345 19.2553 10.9959 20.2561 12.5841L21.5988 14.6608L7.30689 14.7701C7.18039 14.7711 7.05729 14.8177 6.95463 14.9035C6.85197 14.9892 6.77484 15.11 6.73392 15.2489L0.0327878 37.9833C0.00140522 38.0899 -0.00762292 38.2036 0.00645318 38.3149C0.0205293 38.4263 0.0573034 38.5322 0.113721 38.6238C0.170139 38.7154 0.244571 38.79 0.330837 38.8415C0.417102 38.893 0.51271 38.9199 0.60972 38.9199H49.3903C49.4859 38.9199 49.5803 38.8938 49.6656 38.8436C49.7509 38.7935 49.8249 38.7208 49.8816 38.6313C49.9382 38.5419 49.9759 38.4382 49.9917 38.3287C50.0074 38.2192 50.0008 38.107 49.9722 38.001L44.801 18.8171ZM40.2176 13.1372C40.308 11.5299 41.4252 9.86736 43.1388 9.86736C44.8523 9.86736 45.9695 11.5303 46.0599 13.1391C46.0999 13.9811 45.8776 14.8118 45.4337 15.4794L43.1388 19.0294L40.8482 15.4865C40.4076 14.8132 40.1846 13.9818 40.2181 13.1372H40.2176ZM39.7765 16.1756C39.8069 16.227 39.8374 16.2782 39.8689 16.3289L42.6516 20.6337C42.7084 20.7215 42.782 20.7929 42.8667 20.842C42.9513 20.8911 43.0447 20.9167 43.1394 20.9167C43.234 20.9167 43.3274 20.8911 43.4121 20.842C43.4967 20.7929 43.5704 20.7215 43.6272 20.6337L43.8994 20.2126L44.5926 22.7845L35.1383 22.787L34.4533 16.2897L39.7765 16.1756ZM21.2365 11.7422C20.409 10.4292 19.9999 8.89791 20.0845 7.42959C20.1721 5.84224 20.7532 4.34576 21.72 3.21827C22.2123 2.6468 22.7968 2.19347 23.4401 1.88418C24.0834 1.5749 24.7729 1.41571 25.4692 1.41571C26.1655 1.41571 26.855 1.5749 27.4982 1.88418C28.1415 2.19347 28.726 2.6468 29.2183 3.21827C30.1856 4.34625 30.767 5.84348 30.8545 7.4316C30.929 8.97955 30.5215 10.507 29.7063 11.7353L25.4692 18.2892L21.2365 11.7422ZM1.46277 37.5046L4.63046 26.7576L8.23697 26.7448L11.5404 31.8546C11.5972 31.9425 11.6709 32.0138 11.7555 32.0629C11.8402 32.1121 11.9336 32.1376 12.0282 32.1376C12.1229 32.1376 12.2163 32.1121 12.3009 32.0629C12.3856 32.0138 12.4592 31.9425 12.516 31.8546L15.1482 27.7827L15.1806 37.5046H1.46277ZM14.9415 25.7446L12.0281 30.2508L9.11929 25.7516C8.54744 24.8434 8.26441 23.788 8.32274 22.7773C8.43717 20.7405 9.85455 18.6338 12.0281 18.6338C14.2017 18.6338 15.6191 20.7405 15.7337 22.7793C15.7846 23.846 15.5035 24.8984 14.9415 25.7446ZM24.5517 30.0864C24.4942 30.1522 24.4484 30.2307 24.4172 30.3173C24.386 30.4038 24.37 30.4967 24.37 30.5905L24.3733 37.5046H16.4001L16.3618 25.7829C16.8041 24.8347 17.0083 23.7614 16.9512 22.6852C16.779 19.6199 14.6168 17.2185 12.0288 17.2185C9.44093 17.2185 7.27884 19.6199 7.10658 22.684C7.06024 23.592 7.20102 24.4998 7.51725 25.3321L5.04875 25.3408L7.74825 16.1821L22.5104 16.0697L24.9821 19.893C25.0389 19.9809 25.1126 20.0522 25.1972 20.1014C25.2819 20.1505 25.3753 20.1761 25.4699 20.1761C25.5646 20.1761 25.6579 20.1505 25.7426 20.1014C25.8273 20.0522 25.9009 19.9809 25.9577 19.893L28.2012 16.422L33.2276 16.315L33.9934 23.58C34.0115 23.7515 34.083 23.9094 34.1945 24.0239C34.306 24.1384 34.4498 24.2016 34.5987 24.2016L44.9741 24.1989L46.5041 29.8749L34.1174 29.8993C34.2258 29.4129 34.2665 28.9096 34.2379 28.4083C34.0932 25.8328 32.2755 23.8154 30.0999 23.8154C27.9243 23.8154 26.1066 25.8328 25.9619 28.4072C25.9343 28.91 25.977 29.4148 26.0883 29.9018L24.9889 29.8828C24.9079 29.8803 24.8274 29.897 24.7522 29.932C24.677 29.967 24.6088 30.0196 24.5517 30.0864ZM32.3947 30.8427L30.0998 34.3926L27.8094 30.8499C27.3685 30.1767 27.1453 29.3453 27.1787 28.5007C27.269 26.8933 28.3864 25.2309 30.0998 25.2309C31.8132 25.2309 32.9306 26.8938 33.0211 28.5027C33.0608 29.3447 32.8385 30.1752 32.3947 30.8428V30.8427ZM25.5928 37.5046L25.5898 31.3085L26.6176 31.3262C26.6836 31.4504 26.7542 31.5723 26.8294 31.6918L29.612 35.9966C29.6688 36.0845 29.7425 36.1558 29.8271 36.2049C29.9118 36.254 30.0051 36.2796 30.0998 36.2796C30.1945 36.2796 30.2878 36.254 30.3725 36.2049C30.4572 36.1558 30.5308 36.0845 30.5876 35.9966L33.3698 31.6931C33.4493 31.5705 33.5236 31.4447 33.5927 31.3157L46.8854 31.2896L48.5606 37.5046H25.5928Z" fill="black"/>
</g>
</svg>
